<svg xmlns="http://www.w3.org/2000/svg" viewBox="0 0 800 500" role="img">
  <defs>
    <linearGradient id="bg" x1="0" x2="1" y1="0" y2="1"><stop offset="0" stop-color="#f8fafc"/><stop offset="1" stop-color="#e1f5ee"/></linearGradient>
    <filter id="s" x="-20%" y="-20%" width="140%" height="140%"><feDropShadow dx="0" dy="18" stdDeviation="18" flood-color="#0d1b2a" flood-opacity=".16"/></filter>
  </defs>
  <rect width="800" height="500" rx="34" fill="url(#bg)"/>
  <!-- the draft: claims, the grounded ones tinted green -->
  <g filter="url(#s)">
    <rect x="86" y="70" width="430" height="360" rx="24" fill="#fff"/>
    <rect x="122" y="112" width="196" height="18" rx="9" fill="#0d1b2a" opacity=".2"/>
    <rect x="122" y="162" width="330" height="12" rx="6" fill="#0d1b2a" opacity=".13"/>
    <rect x="122" y="192" width="300" height="12" rx="6" fill="#3ba876" opacity=".4"/>
    <rect x="122" y="222" width="262" height="12" rx="6" fill="#0d1b2a" opacity=".13"/>
    <rect x="122" y="252" width="340" height="12" rx="6" fill="#3ba876" opacity=".4"/>
    <rect x="122" y="282" width="246" height="12" rx="6" fill="#0d1b2a" opacity=".13"/>
    <rect x="122" y="312" width="318" height="12" rx="6" fill="#3ba876" opacity=".4"/>
    <rect x="122" y="342" width="220" height="12" rx="6" fill="#0d1b2a" opacity=".13"/>
    <!-- anchor markers tying grounded lines to a source -->
    <circle cx="470" cy="198" r="6" fill="#0f6e56"/>
    <circle cx="478" cy="258" r="6" fill="#0f6e56"/>
    <circle cx="456" cy="318" r="6" fill="#0f6e56"/>
  </g>
  <!-- the source the claims are anchored to -->
  <g filter="url(#s)">
    <rect x="540" y="150" width="174" height="200" rx="22" fill="#fff"/>
    <rect x="572" y="186" width="110" height="12" rx="6" fill="#0d1b2a" opacity=".16"/>
    <rect x="572" y="214" width="86" height="10" rx="5" fill="#0d1b2a" opacity=".11"/>
    <rect x="572" y="240" width="100" height="10" rx="5" fill="#0d1b2a" opacity=".11"/>
    <circle cx="627" cy="300" r="22" fill="#3ba876"/>
    <path d="M615 300l8 9 16-20" fill="none" stroke="#fff" stroke-width="6" stroke-linecap="round" stroke-linejoin="round"/>
  </g>
  <!-- claims reaching to the source -->
  <path d="M484 200c24-6 36-18 48-34M490 258c20 2 34-8 46-30M468 318c30 8 50-6 66-44" fill="none" stroke="#0f6e56" stroke-width="6" stroke-linecap="round"/>
</svg>
